<?xml version="1.0" standalone="no"?>
<!DOCTYPE svg PUBLIC "-//W3C//DTD SVG 20010904//EN"
 "http://www.w3.org/TR/2001/REC-SVG-20010904/DTD/svg10.dtd">
<svg version="1.0" xmlns="http://www.w3.org/2000/svg"
 width="512.000000pt" height="512.000000pt" viewBox="0 0 512.000000 512.000000"
 preserveAspectRatio="xMidYMid meet">
<metadata>
Created by potrace 1.11, written by Peter Selinger 2001-2013
</metadata>
<g transform="translate(0.000000,512.000000) scale(0.100000,-0.100000)"
fill="#000000" stroke="none">
<path d="M429 5101 c-173 -47 -323 -178 -387 -341 -12 -30 -26 -79 -32 -109
-7 -35 -10 -762 -9 -2100 1 -2249 -3 -2112 63 -2238 70 -133 182 -230 326
-284 l65 -24 2080 -2 c2310 -3 2140 -8 2279 65 94 49 189 145 239 239 21 40
35 73 31 73 -3 0 -2 6 4 13 29 35 31 157 31 2177 0 1930 -1 2059 -18 2120 -51
189 -194 339 -388 408 -45 15 -199 17 -2133 18 -1961 2 -2089 1 -2151 -15z"/>
</g>
</svg>
